<svg width="1696" height="394" viewBox="0 0 1696 394" fill="none" xmlns="http://www.w3.org/2000/svg">
<path d="M453.031 212.8H483.631V325.6C482.631 326 480.731 326.6 477.931 327.4C475.331 328 472.631 328.3 469.831 328.3C464.631 328.3 460.531 326.8 457.531 323.8C454.531 320.6 453.031 316.5 453.031 311.5V212.8ZM483.631 259.6H453.031V162.4C453.031 157.4 454.531 153.4 457.531 150.4C460.531 147.2 464.631 145.6 469.831 145.6C472.631 145.6 475.331 145.9 477.931 146.5C480.731 147.1 482.631 147.7 483.631 148.3V259.6ZM469.831 247.3V222.1H560.131C560.931 223.3 561.631 225 562.231 227.2C563.031 229.2 563.431 231.5 563.431 234.1C563.431 238.3 562.431 241.6 560.431 244C558.431 246.2 555.631 247.3 552.031 247.3H469.831ZM469.831 328.3V302.8H570.631C571.431 304 572.131 305.7 572.731 307.9C573.531 309.9 573.931 312.3 573.931 315.1C573.931 319.3 572.931 322.6 570.931 325C569.131 327.2 566.331 328.3 562.531 328.3H469.831ZM469.831 171.1V145.6H569.131C569.931 146.8 570.731 148.5 571.531 150.7C572.331 152.9 572.731 155.2 572.731 157.6C572.731 161.8 571.731 165.1 569.731 167.5C567.731 169.9 564.931 171.1 561.331 171.1H469.831ZM673.048 262.6H603.148C602.348 261 601.648 259.2 601.048 257.2C600.448 255.2 600.148 253 600.148 250.6C600.148 246.2 601.248 243 603.448 241C605.848 238.8 608.848 237.7 612.448 237.7H682.648C683.248 239.1 683.848 240.9 684.448 243.1C685.048 245.1 685.348 247.3 685.348 249.7C685.348 253.9 684.248 257.1 682.048 259.3C680.048 261.5 677.048 262.6 673.048 262.6ZM838.606 231.1V265.3H808.306V234.1C808.306 225.1 805.706 218.6 800.506 214.6C795.306 210.4 788.506 208.3 780.106 208.3C774.506 208.3 769.106 209.2 763.906 211C758.906 212.8 754.706 214.8 751.306 217V265.3H721.006V216.4C721.006 212 721.906 208.4 723.706 205.6C725.506 202.6 728.506 199.7 732.706 196.9C738.306 193.3 745.506 190.2 754.306 187.6C763.106 185 772.006 183.7 781.006 183.7C791.006 183.7 800.006 185.2 808.006 188.2C816.006 191.2 822.206 195.6 826.606 201.4C828.006 202.6 829.206 203.8 830.206 205C831.206 206 832.106 207.3 832.906 208.9C834.506 211.5 835.806 214.7 836.806 218.5C838.006 222.3 838.606 226.5 838.606 231.1ZM925.906 232.6V265.3H895.606V234.1C895.606 225.1 893.106 218.6 888.106 214.6C883.106 210.4 876.406 208.3 868.006 208.3C861.806 208.3 855.806 209.6 850.006 212.2C844.206 214.6 839.006 218.1 834.406 222.7L820.606 202.6C826.206 197.6 833.206 193.2 841.606 189.4C850.006 185.6 859.906 183.7 871.306 183.7C881.906 183.7 891.306 185.4 899.506 188.8C907.706 192.2 914.106 197.6 918.706 205C923.506 212.2 925.906 221.4 925.906 232.6ZM721.006 250.3H751.306V327.4C749.906 327.8 747.906 328.3 745.306 328.9C742.906 329.5 740.306 329.8 737.506 329.8C731.906 329.8 727.706 328.8 724.906 326.8C722.306 324.6 721.006 320.9 721.006 315.7V250.3ZM808.306 250.3H838.606V327.4C837.406 327.8 835.506 328.3 832.906 328.9C830.306 329.5 827.606 329.8 824.806 329.8C819.206 329.8 815.006 328.8 812.206 326.8C809.606 324.6 808.306 320.9 808.306 315.7V250.3ZM895.606 250.3H925.906V327.4C924.706 327.8 922.806 328.3 920.206 328.9C917.606 329.5 914.906 329.8 912.106 329.8C906.506 329.8 902.306 328.8 899.506 326.8C896.906 324.6 895.606 320.9 895.606 315.7V250.3ZM1020.48 332.2C1001.08 332.2 985.879 328.5 974.879 321.1C964.079 313.5 958.679 302.4 958.679 287.8C958.679 274.6 962.979 264.5 971.579 257.5C980.379 250.5 992.579 246.2 1008.18 244.6L1050.18 240.4V233.5C1050.18 224.5 1047.28 218 1041.48 214C1035.68 209.8 1027.78 207.7 1017.78 207.7C1009.78 207.7 1001.98 208.8 994.379 211C986.979 213.2 980.379 215.8 974.579 218.8C972.779 217.2 971.179 215.3 969.779 213.1C968.379 210.7 967.679 208.3 967.679 205.9C967.679 199.5 971.079 194.8 977.879 191.8C983.279 189.2 989.579 187.2 996.779 185.8C1004.18 184.4 1011.78 183.7 1019.58 183.7C1037.98 183.7 1052.58 187.7 1063.38 195.7C1074.38 203.7 1079.88 216.4 1079.88 233.8V304C1079.88 308.6 1078.88 312.2 1076.88 314.8C1074.88 317.2 1072.18 319.5 1068.78 321.7C1063.58 324.5 1056.78 326.9 1048.38 328.9C1040.18 331.1 1030.88 332.2 1020.48 332.2ZM1020.48 308.5C1027.68 308.5 1033.88 307.8 1039.08 306.4C1044.28 304.8 1047.98 303.3 1050.18 301.9V262.9L1016.58 266.2C1007.38 267 1000.38 269.1 995.579 272.5C990.979 275.9 988.679 280.8 988.679 287.2C988.679 293.8 991.279 299 996.479 302.8C1001.88 306.6 1009.88 308.5 1020.48 308.5ZM1151.21 217.6V261.7H1120.91V217C1120.91 212.2 1121.91 208.3 1123.91 205.3C1125.91 202.1 1129.01 199.1 1133.21 196.3C1138.81 192.7 1146.11 189.7 1155.11 187.3C1164.31 184.9 1174.31 183.7 1185.11 183.7C1202.51 183.7 1211.21 188.6 1211.21 198.4C1211.21 200.8 1210.81 203 1210.01 205C1209.41 207 1208.51 208.7 1207.31 210.1C1205.31 209.7 1202.71 209.4 1199.51 209.2C1196.51 208.8 1193.41 208.6 1190.21 208.6C1182.01 208.6 1174.51 209.5 1167.71 211.3C1161.11 212.9 1155.61 215 1151.21 217.6ZM1120.91 248.8L1151.21 251.5V327.4C1149.81 327.8 1147.81 328.3 1145.21 328.9C1142.81 329.5 1140.21 329.8 1137.41 329.8C1131.81 329.8 1127.61 328.8 1124.81 326.8C1122.21 324.6 1120.91 320.9 1120.91 315.7V248.8ZM1282.81 266.5L1262.41 252.1L1330.81 185.2C1336.81 185.4 1341.61 186.8 1345.21 189.4C1348.81 192 1350.61 195.5 1350.61 199.9C1350.61 203.3 1349.41 206.4 1347.01 209.2C1344.81 212 1341.41 215.3 1336.81 219.1L1282.81 266.5ZM1262.71 256.9L1285.21 244.9L1358.41 312.1C1357.81 317.7 1356.11 322.1 1353.31 325.3C1350.51 328.5 1346.61 330.1 1341.61 330.1C1337.81 330.1 1334.31 329.1 1331.11 327.1C1328.11 325.1 1325.01 322.3 1321.81 318.7L1262.71 256.9ZM1238.11 247.9L1268.41 250.6V327.4C1267.01 327.8 1265.01 328.3 1262.41 328.9C1260.01 329.5 1257.41 329.8 1254.61 329.8C1249.01 329.8 1244.81 328.8 1242.01 326.8C1239.41 324.6 1238.11 320.9 1238.11 315.7V247.9ZM1268.41 265.9L1238.11 263.2V133.3C1239.31 132.9 1241.21 132.5 1243.81 132.1C1246.41 131.5 1249.21 131.2 1252.21 131.2C1257.61 131.2 1261.61 132.2 1264.21 134.2C1267.01 136.2 1268.41 139.8 1268.41 145V265.9ZM1396.88 274.9L1395.68 252.7L1481.18 240.4C1480.38 231 1476.98 223.2 1470.98 217C1464.98 210.6 1456.48 207.4 1445.48 207.4C1434.08 207.4 1424.68 211.4 1417.28 219.4C1409.88 227.4 1406.08 238.9 1405.88 253.9L1406.48 264.7C1407.88 279.1 1412.88 289.9 1421.48 297.1C1430.28 304.3 1441.78 307.9 1455.98 307.9C1464.38 307.9 1471.98 306.6 1478.78 304C1485.78 301.4 1491.38 298.5 1495.58 295.3C1497.98 296.9 1499.88 298.9 1501.28 301.3C1502.88 303.5 1503.68 306 1503.68 308.8C1503.68 313.2 1501.48 317.2 1497.08 320.8C1492.68 324.4 1486.68 327.2 1479.08 329.2C1471.68 331.2 1463.38 332.2 1454.18 332.2C1438.58 332.2 1424.98 329.4 1413.38 323.8C1401.98 318 1393.08 309.5 1386.68 298.3C1380.28 286.9 1377.08 273 1377.08 256.6C1377.08 244.8 1378.78 234.4 1382.18 225.4C1385.78 216.2 1390.68 208.6 1396.88 202.6C1403.08 196.4 1410.38 191.7 1418.78 188.5C1427.18 185.3 1436.18 183.7 1445.78 183.7C1458.38 183.7 1469.48 186.4 1479.08 191.8C1488.68 197 1496.18 204.3 1501.58 213.7C1507.18 222.9 1509.98 233.6 1509.98 245.8C1509.98 250.6 1508.68 254.2 1506.08 256.6C1503.68 258.8 1500.38 260.2 1496.18 260.8L1396.88 274.9ZM1542.79 248.8H1573.09V287.2C1573.09 294.6 1575.19 299.8 1579.39 302.8C1583.59 305.8 1589.49 307.3 1597.09 307.3C1600.49 307.3 1604.09 306.8 1607.89 305.8C1611.89 304.8 1615.29 303.6 1618.09 302.2C1619.49 303.6 1620.69 305.3 1621.69 307.3C1622.69 309.3 1623.19 311.7 1623.19 314.5C1623.19 319.7 1620.49 323.9 1615.09 327.1C1609.89 330.3 1602.09 331.9 1591.69 331.9C1576.89 331.9 1564.99 328.6 1555.99 322C1547.19 315.4 1542.79 304.5 1542.79 289.3V248.8ZM1559.89 215.2V190.9H1619.89C1620.49 191.9 1621.19 193.5 1621.99 195.7C1622.79 197.9 1623.19 200.2 1623.19 202.6C1623.19 206.8 1622.19 210 1620.19 212.2C1618.19 214.2 1615.49 215.2 1612.09 215.2H1559.89ZM1573.09 257.5H1542.79V148.9C1543.99 148.5 1545.89 148.1 1548.49 147.7C1551.09 147.1 1553.89 146.8 1556.89 146.8C1562.29 146.8 1566.29 147.9 1568.89 150.1C1571.69 152.1 1573.09 155.6 1573.09 160.6V257.5Z" fill="black"/>
<g clip-path="url(#clip0_12_891)">
<path d="M120.35 128.099L103.996 127.967L103.649 126.12C103.076 123.063 103.857 98.6957 104.704 93.2307C107.484 75.2887 113.93 60.1347 124.907 45.7307C128.369 41.1877 138.201 31.2427 142.703 27.7287C155.48 17.7577 169.946 10.9867 185.453 7.71773C193.848 5.94773 209.678 5.44873 218.453 6.67773C229.952 8.28773 239.397 11.1997 249.536 16.2607C260.29 21.6287 267.331 26.4877 274.953 33.8047C293.288 51.4027 303.746 71.8147 306.429 95.2337C306.713 97.7067 306.947 106.087 306.949 113.856L306.953 127.981H290.252H273.552L273.314 113.106C273.056 97.0477 272.796 95.0077 269.891 86.2307C266.629 76.3717 261.844 68.4087 254.828 61.1557C240.825 46.6807 224.421 39.4888 205.394 39.4827C190.754 39.4787 176.85 44.1297 164.953 53.0137C151.669 62.9327 143.349 74.9857 139.09 90.4807C137.833 95.0527 137.777 95.8387 137.578 111.481C137.465 120.419 137.222 127.844 137.038 127.981C136.854 128.118 129.344 128.171 120.35 128.099Z" fill="#252F3E" stroke="#252F3E"/>
<path d="M201.203 334.218C184.705 331.565 170.422 324.058 158.588 311.819C144.712 297.468 137.902 278.952 138.605 257.481C138.9 248.492 139.576 244.578 142.208 236.651C145.682 226.188 150.617 218.322 158.951 209.96C167.453 201.431 176.833 195.496 187.337 192.005C194.54 189.609 198.663 188.921 207.533 188.629C220.828 188.192 228.841 189.913 240.703 195.753C248.534 199.608 252.564 202.554 259.305 209.349C272.544 222.696 279.453 239.39 279.453 258.033C279.453 263.742 278.847 270.721 278.144 273.106C277.9 273.932 275.031 273.981 227.044 273.986C199.082 273.988 175.017 274.133 173.567 274.307C170.47 274.678 170.472 274.485 173.47 280.861C178.102 290.713 184.575 297.254 194.138 301.745C200.304 304.641 205.263 305.695 212.453 305.638C225.033 305.538 234.202 301.918 244.274 293.073C246.878 290.787 249.174 288.987 249.376 289.073C250.324 289.48 273.956 305.581 274.213 305.996C274.582 306.593 266.49 314.645 261.675 318.471C252.382 325.856 241.569 330.863 229.123 333.545C222.666 334.937 207.886 335.293 201.203 334.218ZM247.733 245.606C247.196 243.351 244.171 237.248 242.027 234.09C239.434 230.272 233.64 224.926 229.427 222.466C218.158 215.885 204.049 215.601 191.984 221.715C185.989 224.753 178.97 231.289 175.59 236.981C174.555 238.723 172.385 243.712 171.729 245.856L171.386 246.981H209.723H248.062L247.733 245.606Z" fill="white" stroke="white"/>
<path d="M170.702 198.981C170.872 198.706 171.324 198.481 171.707 198.481C172.089 198.481 172.582 198.2 172.802 197.856C173.259 197.142 174.539 196.29 176.702 195.262C179.789 193.794 186.781 191.041 188.952 190.438C190.19 190.094 191.416 189.625 191.677 189.397C191.938 189.168 192.839 188.979 193.677 188.978C194.515 188.976 195.99 188.76 196.952 188.496C199.789 187.721 202.513 187.548 202.31 188.156C202.211 188.455 200.346 188.976 198.166 189.317C190.41 190.526 181.958 193.543 174.279 197.844C171.303 199.511 170.147 199.878 170.702 198.981Z" fill="#288BD5" stroke="#288BD5"/>
<path d="M171.729 245.856C172.385 243.712 174.555 238.723 175.59 236.981C178.97 231.289 185.989 224.753 191.984 221.715C212.332 211.404 235.891 219.7 245.718 240.635C246.646 242.613 247.553 244.849 247.733 245.606L248.062 246.981H209.723H171.386L171.729 245.856Z" fill="#319BE5" stroke="#319BE5"/>
<path d="M84.9527 280.952C84.9527 280.66 84.7727 280.533 84.5537 280.669C83.2527 281.677 82.6537 276.501 80.8807 278.107C80.3397 277.966 79.4667 278.265 78.8837 278.793C77.8687 279.712 77.8497 279.711 77.9577 278.731C78.2097 276.443 77.9617 275.509 77.1817 275.808C75.7457 277.452 73.0937 277.452 70.4867 277.752C69.7987 277.327 68.3437 278.4 68.7397 279.041C69.0227 280.272 64.6107 279.506 64.1827 280.981C63.4677 280.981 62.0147 278.922 61.8127 277.622C61.6087 276.308 60.9487 275.424 60.4187 275.752C58.8957 274.472 58.8957 272.198 58.2077 270.178C58.2047 269.71 57.3667 268.898 56.3327 268.361C54.5987 267.459 54.4767 267.251 54.6497 265.478C54.8027 263.904 54.6607 263.521 53.8417 263.307C52.3927 262.596 52.5167 258.839 53.4527 259.788C53.4527 259.224 51.8947 256.73 50.7137 255.404C49.8767 254.466 49.4557 253.524 49.6097 252.934C49.0367 250.817 49.4357 250.817 48.4527 249.472C48.4527 248.899 48.1377 247.821 47.7507 247.075C47.3657 246.329 46.7557 244.258 46.3957 242.474C45.8297 239.662 45.7047 239.431 45.4527 240.731C45.0967 242.57 45.0777 242.499 39.3807 218.981C29.6327 178.733 29.3857 177.378 30.3987 169.483C33.2577 147.195 49.8487 130.747 71.7627 128.474C74.6867 128.171 125.761 127.989 206.951 127.991C350.12 127.996 340.915 127.799 348.785 131.019C357.557 134.608 365.428 140.618 370.515 147.613C373.57 151.814 376.998 158.899 378.193 163.481C379.088 166.914 379.848 180.198 379.088 179.115C378.807 178.715 378.431 179.592 378.015 181.615C377.664 183.329 377.039 186.081 376.628 187.731C376.217 189.381 375.551 192.081 375.149 193.731C374.746 195.381 374.213 197.406 373.964 198.231C373.715 199.056 373.261 201.081 372.955 202.731C372.649 204.381 372.218 206.181 371.996 206.731C371.775 207.281 370.864 210.881 369.972 214.731C369.08 218.581 368.014 222.515 367.603 223.474C367.193 224.433 366.733 226.409 366.583 227.864C366.433 229.32 366.117 230.63 365.881 230.775C365.646 230.921 365.453 231.801 365.453 232.731C365.453 233.661 365.224 234.563 364.945 234.736C364.155 235.037 364.155 238.873 363.722 238.965C363.326 239.293 362.862 240.613 362.69 241.897C362.519 243.181 362.24 244.568 362.069 244.981C360.682 248.346 360.328 251.436 359.596 251.971C359.924 253.229 358.867 257.455 358.203 257.537C357.168 257.666 355.877 258.875 356.418 259.209C357.713 263.177 356.453 264.338 355.552 263.135C355.469 262.576 354.738 261.484 353.927 260.707C346.597 260.627 349.412 272.088 346.217 266.526C345.944 265.667 345.743 265.746 344.208 267.327C343.27 268.293 342.425 269.316 342.331 269.599C336.746 269.965 336.746 265.96 334.935 267.309C334.064 267.484 333.146 267.349 332.704 266.982C331.535 267.995 323.638 267.995 321.502 268.066C320.698 268.568 320.318 268.439 319.032 267.225C318.196 266.436 317.615 265.624 317.741 265.42C305.986 267.914 319.03 253.559 310.844 252.856C309.555 251.671 308.112 251.074 307.48 251.464C308.322 252.38 306.079 254.334 306.125 254.599C306.51 256.13 305.405 257.377 304.562 256.362C304.405 257.311 301.477 257.311 301.103 257.564C300.254 258.269 299.236 257.435 299.141 255.956C297.165 256.536 294.259 256.536 292.213 254.972C292.99 254.329 293.241 252.481 292.553 252.481C290.168 254.395 287.791 246.978 285.923 250.949C285.322 250 285.338 249.296 284.038 248.01C282.83 249.135 282.829 249.132 282.756 245.981C282.719 244.422 282.504 243.772 282.054 243.864C281.503 240.759 279.43 244.194 279.453 242.623C279.453 241.056 277.999 236.981 277.44 236.981C277.233 236.981 276.915 236.137 276.732 235.106C276.549 234.075 276.266 232.781 276.102 232.231C275.818 231.272 275.792 231.269 275.474 232.173C275.222 232.892 274.636 232.06 273.013 228.673C269.671 221.7 264.938 215.029 259.305 209.349C252.564 202.554 248.534 199.608 240.703 195.753C229.697 190.334 221.772 188.481 209.615 188.481C205.676 188.481 202.453 188.287 202.453 188.05C202.453 187.556 199.525 187.793 196.953 188.496C195.991 188.76 194.516 188.976 193.678 188.978C192.84 188.979 191.939 189.168 191.678 189.397C191.417 189.625 190.191 190.094 188.953 190.438C186.782 191.041 179.79 193.794 176.703 195.262C173.589 196.742 172.299 197.827 170.835 199.419C171.104 199.591 170.104 200.574 168.611 201.604C167.118 202.634 166.056 203.218 164.453 203.315C163.508 203.455 160.84 206.392 161.17 206.928C161.306 207.148 160.75 207.967 159.935 208.748C152.892 213.345 162.048 206.337 160.189 207.459C159.576 206.466 153.658 213.036 149.381 219.459C144.694 226.497 142.198 231.745 140.708 237.698C140.023 240.43 139.239 242.804 138.965 242.974C138.13 243.49 136.568 253.097 136.228 259.807C136.044 263.429 135.79 263.976 134.453 263.625C133.65 263.416 133.453 263.611 133.453 264.611C133.453 265.683 132.139 267.476 130.852 267.408C131.753 267.979 131.237 270.377 129.994 271.4C129.44 271.857 128.067 272.789 126.944 273.472C125.821 274.155 125.126 274.789 125.4 274.88C125.22 277.481 120.963 275.601 120.105 277.255C119.177 277.205 118.498 276.723 117.922 275.707C114.122 270.723 111.736 270.723 108.203 271.353C108.203 272.202 104.838 276.438 104.145 276.462C103.839 276.472 102.995 276.015 102.27 275.445C101.1 274.524 101.037 274.326 101.703 273.659C102.494 272.868 102.751 269.981 102.03 269.981C101.362 269.981 99.9147 271.776 99.1157 272.811C99.6007 273.295 97.7697 274.439 94.9597 273.356C94.9437 274.659 93.9977 276.053 93.3807 275.682C91.1887 277.202 91.1887 278.852 90.2267 277.59C90.0347 276.718 90.0057 275.8 90.1597 275.55C90.3157 275.299 90.1367 274.841 89.7637 274.532C89.2507 274.106 88.9317 274.153 88.4577 274.725C88.1127 275.141 87.9817 275.481 88.1667 275.481C88.3517 275.481 88.2897 275.861 88.0287 276.327C87.7037 276.908 87.7807 277.516 88.2727 278.266C88.8997 279.225 88.8937 279.396 88.2247 279.654C87.7887 279.821 87.0347 279.491 86.4707 278.885C85.6197 277.971 85.4387 277.933 85.1787 278.613C85.0127 279.048 85.1257 279.87 85.4317 280.442C85.8017 281.134 85.8147 281.481 85.4697 281.481C85.1857 281.481 84.9527 281.242 84.9527 280.952Z" fill="#319BE5" stroke="#319BE5"/>
<path d="M109.131 388.181C103.627 387.254 96.1628 384.063 90.4898 380.215C88.9658 379.18 85.8748 376.386 83.6218 374.006C80.3528 370.553 79.0168 368.649 77.0068 364.58C74.6848 359.878 74.1148 357.904 69.6828 339.231C67.0388 328.093 60.4328 300.598 55.0018 278.131C47.4738 246.984 45.2098 236.889 45.4728 235.631C45.7968 234.082 45.8578 234.179 46.4638 237.224C46.8188 239.008 47.4248 241.079 47.8098 241.825C48.1968 242.571 48.5118 243.649 48.5118 244.222C50.1488 246.37 49.0798 246.87 49.6688 247.684C49.5148 248.274 49.9358 249.216 50.7728 250.154C51.9538 251.48 53.5118 253.974 53.5118 254.538C53.1438 257.139 53.1438 257.139 53.9008 258.057C54.7198 258.271 54.8618 258.654 54.7088 260.228C54.5358 262.001 54.6578 262.209 56.3918 263.111C57.4258 263.648 58.2638 264.46 58.2668 264.928C60.0558 268.038 61.5698 269.425 60.4778 270.502C61.0078 270.174 61.6678 271.058 61.8718 272.372C62.0738 273.672 63.5268 275.731 64.2418 275.731C65.9658 274.558 68.9708 274.558 68.7988 273.791C68.4028 273.15 69.8578 272.077 70.5458 272.502C76.6538 271.856 76.6538 276.336 77.2408 270.558C78.0208 270.259 78.2688 271.193 78.0168 273.481C77.9088 274.461 77.9278 274.462 78.9428 273.543C79.5258 273.015 80.3988 272.716 80.9398 272.857C86.6658 279.824 86.9588 271.152 90.2188 270.3C90.0648 270.55 90.0938 271.468 90.2858 272.34C91.4468 274.839 93.3168 270.507 93.4398 270.432C94.0568 270.803 95.0028 269.409 96.8078 269.039C97.8288 269.189 99.6598 268.045 100.344 266.896C99.9738 266.526 101.421 264.731 102.089 264.731C102.81 264.731 102.553 267.618 101.762 268.409C101.096 269.076 101.159 269.274 102.329 270.195C103.054 270.765 103.898 271.222 104.204 271.212C104.897 271.188 108.262 266.952 108.262 266.103C112.67 266.581 114.395 268.274 117.981 270.457C118.557 271.473 119.236 271.955 120.164 272.005C122.135 270.859 125.43 270.596 125.459 269.63C125.185 269.539 125.88 268.905 127.003 268.222C128.126 267.539 129.499 266.607 130.053 266.15C131.296 265.127 131.812 262.729 130.911 262.158C130.412 261.841 130.406 261.745 130.887 261.739C132.016 261.725 132.255 261.651 134.512 258.375C135.849 258.726 136.103 258.179 136.287 254.557C136.627 247.847 138.189 238.24 139.024 237.724C139.298 237.554 140.082 235.18 140.767 232.448C142.259 226.488 144.759 221.236 149.446 214.209C152.93 208.988 159.2 201.65 159.994 201.866C160.225 201.93 161.166 201.123 162.087 200.074C163.009 199.025 164.099 198.119 164.512 198.06C164.925 198.001 165.543 197.777 165.887 197.563C167.469 196.575 166.223 197.866 163.334 200.21C157.341 205.073 149.741 214.796 145.797 222.651C143.67 226.887 140.947 234.812 139.757 240.231C138.49 246.007 138.21 259.231 139.212 266.053C141.692 282.928 148.271 296.169 159.941 307.765C171.086 318.841 183.462 325.469 198.78 328.564C205.165 329.855 221.969 329.857 228.012 328.569C245.208 324.904 257.3 318.333 269.97 305.772C272.497 303.268 274.432 301.006 274.272 300.746C274.015 300.331 250.383 284.23 249.435 283.823C249.233 283.737 246.937 285.537 244.333 287.823C234.261 296.668 225.092 300.288 212.512 300.388C205.322 300.445 200.363 299.391 194.197 296.495C184.634 292.004 178.161 285.463 173.529 275.611C170.531 269.235 170.529 269.428 173.626 269.057C175.076 268.883 199.132 268.738 227.084 268.736C269.122 268.732 277.95 268.615 278.162 268.061C278.304 267.692 278.695 265.202 279.032 262.527C280.292 252.514 278.931 238.502 275.871 229.981C275.476 228.881 275.313 227.531 276.161 226.981C276.325 227.531 276.608 228.825 276.791 229.856C276.974 230.887 277.292 231.731 277.499 231.731C278.058 231.731 279.512 235.806 279.512 237.373C279.729 240.07 281.891 235.654 282.113 238.614C282.563 238.522 282.778 239.172 282.815 240.731C282.888 243.882 282.889 243.885 286.033 243.41C285.397 244.046 285.381 244.75 285.982 245.699C288.763 247.831 290.743 247.831 292.612 247.231C293.3 247.231 293.049 249.079 292.272 249.722C293.94 252.304 297.531 249.867 299.2 250.706C299.295 252.185 300.313 253.019 301.162 252.314C302.888 251.776 305.093 248.555 304.517 250.987C305.45 252.111 306.595 250.986 306.184 249.349C306.314 246.963 308.35 246.963 307.539 246.214C308.171 245.824 309.614 246.421 310.903 247.606C317.69 249.15 308.479 262.221 317.8 260.17C317.674 260.374 318.255 261.186 319.091 261.975C320.377 263.189 320.757 263.318 321.561 262.816C324.607 258.103 331.618 257.289 332.763 261.732C333.205 262.099 334.123 262.234 334.994 262.059C337.712 261.081 341.478 264.393 342.39 264.349C342.484 264.066 343.329 263.043 344.267 262.077C345.802 260.496 346.003 260.417 346.276 261.276C349.544 255.108 348.079 255.108 353.986 255.457C354.797 256.234 355.528 257.326 355.611 257.885C358.468 262.23 355.864 252.538 358.479 252.24C358.87 252.673 359.921 247.738 359.655 246.721C360.993 245.661 360.789 242.178 362.128 239.731C362.299 239.318 362.578 237.931 362.749 236.647C362.921 235.363 363.385 234.043 363.781 233.715C364.797 232.904 364.797 229.446 365.004 229.486C365.283 229.313 365.512 228.411 365.512 227.481C365.512 226.551 365.705 225.671 365.94 225.525C366.176 225.38 366.492 224.07 366.642 222.614C366.792 221.159 367.252 219.183 367.662 218.224C368.073 217.265 369.139 213.331 370.031 209.481C370.923 205.631 371.834 202.031 372.055 201.481C372.277 200.931 372.708 199.131 373.014 197.481C373.32 195.831 373.774 193.806 374.023 192.981C374.494 191.419 375.368 187.938 376.785 181.981C377.243 180.056 377.934 177.243 378.32 175.731L379.025 172.981L378.809 175.731C378.69 177.243 376.239 188.043 373.363 199.731C368.241 220.538 362.43 244.442 353.737 280.481C348.075 303.947 336.797 350.37 335.516 355.481C334.099 361.127 330.188 368.736 326.41 373.196C320.743 379.884 312.903 384.888 304.235 387.351L300.262 388.479L206.012 388.552C153.123 388.592 110.608 388.43 109.131 388.181Z" fill="#288BD5" stroke="#288BD5"/>
</g>
<defs>
<clipPath id="clip0_12_891">
<rect width="354" height="394" fill="white" transform="translate(30)"/>
</clipPath>
</defs>
</svg>
